<svg version="1.1" xmlns="http://www.w3.org/2000/svg" xmlns:xlink="http://www.w3.org/1999/xlink" width="67.13876" height="53.62403" viewBox="0,0,67.13876,53.62403">
	<style>
		@media (prefers-color-scheme: dark) {
		    [id|="char"] {
		        fill: #ffffff;
		    }
            #gradient-0 {
                stop-color: #000000;
            }
            #gradient-1 {
                stop-color: purple;
            }
		}
	</style>
	<defs>
		<linearGradient x1="240" y1="153.18799" x2="240" y2="206.81201" gradientUnits="userSpaceOnUse" id="color-1">
			<stop id="gradient-0" offset="0" stop-color="#ffc59c" />
			<stop id="gradient-1" offset="1" stop-color="#ffec9c" />
		</linearGradient>
	</defs>
	<g transform="translate(-206.43062,-153.18799)">
		<g data-paper-data="{&quot;isPaintingLayer&quot;:true}" fill-rule="nonzero" stroke-linecap="butt" stroke-linejoin="miter" stroke-miterlimit="10" stroke-dasharray="" stroke-dashoffset="0" style="mix-blend-mode: normal">
			<path d="M213.18799,202.15051c0,-10.9195 0,-37.70219 0,-43.93812c0,-2.53463 2.48799,-5.0244 5.02125,-5.0244c6.11852,0 32.02901,0 43.314,0c3.25145,0 5.28878,2.70198 5.28878,5.39888c0,6.31585 0,32.34383 0,43.314c0,3.02991 -2.49807,4.91115 -5.03913,4.91115c-6.10548,0 -31.85344,0 -43.18917,0c-3.31361,0 -5.39572,-1.77745 -5.39572,-4.6615z" fill="url(#color-1)" stroke="#000000" stroke-width="0" />
			<path id="char-3" d="M219.22357,190.21963c-0.16823,-0.08051 -0.28443,-0.25232 -0.28443,-0.45127c0,-0.11279 0.03735,-0.21686 0.10035,-0.30051l0.006,-0.00817c-0.17546,-0.07763 -0.29789,-0.25325 -0.29789,-0.45747c0,-0.11961 0.042,-0.22941 0.11205,-0.31546l0.62221,-0.77776l0.00542,0.00434c0.03652,-0.06089 0.07358,-0.12354 0.11117,-0.18769c-0.1638,-0.08211 -0.27624,-0.25155 -0.27624,-0.44726c0,-0.04574 0.00614,-0.09005 0.01765,-0.13215l0.15894,-0.63574c-0.10803,-0.09171 -0.17658,-0.22852 -0.17658,-0.38133c0,-0.05938 0.01035,-0.11635 0.02935,-0.16919l0.18785,-0.56354l0.03058,0.01019l0.00078,-0.08394c0.20735,-0.28046 0.42582,-0.64146 0.65942,-1.02929l-0.67854,0.5089c-0.08425,0.06462 -0.18966,0.10303 -0.30404,0.10303c-0.27614,0 -0.5,-0.22386 -0.5,-0.5c0,-0.09283 0.0253,-0.17976 0.06938,-0.25426l0.16954,-0.29914c-0.0304,-0.06456 -0.04739,-0.13667 -0.04739,-0.21275c0,-0.15962 0.0748,-0.30178 0.19126,-0.39332l0.20293,-0.16235c-0.12295,-0.09109 -0.20265,-0.23725 -0.20265,-0.40202c0,-0.05114 0.00768,-0.10049 0.02195,-0.14696c-0.10445,0.0127 -0.21433,0.02167 -0.33034,0.02675l0.18445,-0.33988c-0.18118,-0.01774 -0.33399,-0.13219 -0.40614,-0.29105c-0.04797,0.04695 -0.09751,0.09586 -0.14865,0.147l-0.2625,0.18869c-0.06648,0.1981 -0.25364,0.34083 -0.47413,0.34083c-0.27614,0 -0.5,-0.22386 -0.5,-0.5c0,-0.09846 0.02846,-0.19028 0.07761,-0.26767c-0.05355,-0.00417 -0.10473,-0.01677 -0.15222,-0.03648c-0.05899,0.02448 -0.12369,0.038 -0.19154,0.038c-0.1047,0 -0.20188,-0.03218 -0.2822,-0.08719l-0.05981,0.0299c-0.06948,0.03658 -0.14862,0.05728 -0.2326,0.05728c-0.27614,0 -0.5,-0.22386 -0.5,-0.5c0,-0.02433 0.00174,-0.04824 0.00509,-0.07164l-0.20708,0.11833c-0.07482,0.04461 -0.16226,0.07023 -0.25569,0.07023c-0.06464,0 -0.12642,-0.01227 -0.18313,-0.0346l-0.0678,0.01695c-0.04209,0.01151 -0.0864,0.01765 -0.13215,0.01765c-0.23989,0 -0.44033,-0.16894 -0.48882,-0.39435l-0.54161,0.49585c-0.08909,0.08213 -0.20809,0.1323 -0.33882,0.1323c-0.20498,0 -0.38115,-0.12334 -0.45833,-0.29986l-0.11014,0.03671c-0.05284,0.019 -0.1098,0.02935 -0.16919,0.02935c-0.27614,0 -0.5,-0.22386 -0.5,-0.5c0,-0.02954 0.00256,-0.05849 0.00748,-0.08663c-0.0512,-0.01143 -0.09943,-0.03072 -0.14338,-0.05652c-0.54775,0.32612 -1.04547,0.44466 -1.38028,0.1657c-0.20836,-0.1736 -0.31102,-0.35527 -0.33639,-0.53923c-0.05936,0.00626 -0.11924,0.01076 -0.17966,0.0134l0.01655,-0.0305c-0.11489,-0.0298 -0.21373,-0.09942 -0.28092,-0.19325c-0.07746,0.04927 -0.16939,0.07781 -0.26799,0.07781c-0.27614,0 -0.5,-0.22386 -0.5,-0.5c0,-0.03275 0.00315,-0.06477 0.00916,-0.09577c-0.00601,-0.031 -0.00916,-0.06301 -0.00916,-0.09577c0,-0.04574 0.00614,-0.09005 0.01765,-0.13215l0.18882,-0.75527l0.06148,0.01537l0.01133,-0.17702c0.15467,-0.11211 0.31324,-0.22082 0.47669,-0.32116c0.02932,-0.16489 0.04752,-0.34202 0.04824,-0.54495l0.17529,-0.09531l-0.0669,-0.0669l0.38307,-0.38307l0.18011,0.18011l0.44869,-0.24398c-0.02425,0.15782 -0.0481,0.32414 -0.07684,0.49203l0.56774,0c0.07555,0 0.14719,0.01676 0.2114,0.04676c0.45204,-0.2573 0.92845,-0.48195 1.39371,-0.70976l0.33977,-0.33977c0,0 0,0 0,0l0.24572,0.24572c0.14674,-0.08356 0.29998,-0.16551 0.46101,-0.24609l-0.19784,0.50926l0.01739,0.01739c0.34911,-0.17088 0.64958,-0.30309 0.84561,-0.381l0.35912,-0.34386c0.08986,-0.08633 0.21192,-0.1394 0.34637,-0.1394c0.27614,0 0.5,0.22386 0.5,0.5c0,0.11961 -0.042,0.22941 -0.11205,0.31546l-0.03315,0.04144c0.3519,-0.24029 0.68931,-0.46947 0.98305,-0.69055l0.03653,-0.00498l-0.00713,-0.01277l0.45722,-0.2551c-0.01688,-0.05013 -0.02602,-0.10381 -0.02602,-0.15963c0,-0.13807 0.05596,-0.26307 0.14645,-0.35355l0,0l0.70711,-0.70711l0.12449,0.12449c0.01602,-0.01217 0.03196,-0.0243 0.04784,-0.03639c0.22976,-0.256 0.47087,-0.4878 0.72714,-0.71954c-0.13317,-0.08983 -0.22074,-0.24209 -0.22074,-0.41481c0,-0.06114 0.01097,-0.11972 0.03106,-0.17387l0.16425,-0.47679l0.07068,0.02435l0.01096,-0.17301c0.10738,-0.0704 0.21644,-0.15251 0.327,-0.24379c-0.03353,0.00709 -0.0683,0.01082 -0.10395,0.01082c-0.27614,0 -0.5,-0.22386 -0.5,-0.5c0,-0.13807 0.05596,-0.26307 0.14645,-0.35355l0.32171,-0.32171c-0.05015,0.01689 -0.10385,0.02604 -0.15969,0.02604c-0.27614,0 -0.5,-0.22386 -0.5,-0.5c0,-0.15962 0.0748,-0.30178 0.19126,-0.39332l0.14155,-0.11324c-0.06535,0.03133 -0.13857,0.04888 -0.21589,0.04888c-0.27614,0 -0.5,-0.22386 -0.5,-0.5c0,-0.11645 0.03981,-0.2236 0.10656,-0.30859c-0.07042,-0.03112 -0.1323,-0.07801 -0.18117,-0.13621c-0.05134,-0.06114 -0.08832,-0.13475 -0.10573,-0.21562c-0.22536,-0.04851 -0.39427,-0.24893 -0.39427,-0.4888c0,-0.10693 0.03357,-0.20602 0.09073,-0.2873c-0.03778,-0.05371 -0.06524,-0.1152 -0.07954,-0.18158c-0.22536,-0.04851 -0.39427,-0.24893 -0.39427,-0.4888c0,-0.02764 0.00224,-0.05475 0.00655,-0.08116c-0.02642,0.00431 -0.05353,0.00655 -0.08116,0.00655c-0.09744,0 -0.18836,-0.02787 -0.26524,-0.07608l-0.14018,0.04673c-0.05284,0.019 -0.1098,0.02935 -0.16919,0.02935c-0.23114,0 -0.42565,-0.15684 -0.48291,-0.36991l-0.24217,0.12109c-0.06948,0.03658 -0.14862,0.05728 -0.2326,0.05728c-0.23987,0 -0.44029,-0.16891 -0.4888,-0.39427c-0.21291,-0.04583 -0.37542,-0.22724 -0.39274,-0.4494l-0.55925,0.37283c-0.08048,0.05536 -0.17797,0.08777 -0.28304,0.08777c-0.16567,0 -0.31253,-0.08058 -0.40351,-0.20468l-0.46267,0.30845c-0.08048,0.05536 -0.17797,0.08777 -0.28304,0.08777c-0.08878,0 -0.17216,-0.02314 -0.24444,-0.06372l-0.22954,0.16106c-0.08218,0.05928 -0.1831,0.0942 -0.29217,0.0942c-0.22233,0 -0.41077,-0.14512 -0.47577,-0.3458c-0.47722,0.59192 -1.00439,1.15015 -1.58234,1.61842l0.11322,0.11322l-0.57461,0.57461c-0.09048,0.09048 -0.21548,0.14645 -0.35355,0.14645c-0.27614,0 -0.5,-0.22386 -0.5,-0.5c0,-0.08398 0.0207,-0.16312 0.05728,-0.2326l0.07536,-0.15072l-0.16215,0.25858c-0.08758,0.14485 -0.24657,0.24167 -0.42818,0.24167c-0.27614,0 -0.5,-0.22386 -0.5,-0.5c0,-0.05938 0.01035,-0.11635 0.02935,-0.16919l0.09068,-0.27205l-0.06951,0.05106c-0.08363,0.06293 -0.18763,0.10022 -0.30035,0.10022c-0.27614,0 -0.5,-0.22386 -0.5,-0.5c0,-0.10726 0.03377,-0.20663 0.09127,-0.28806l0.05714,-0.08333c-0.10117,-0.09149 -0.16473,-0.2238 -0.16473,-0.37094v-0.76615l0.14397,0l-0.04959,-0.29236c0.78796,-0.35644 1.80963,-1.56956 2.51252,-1.49066v-0.05774h0.57461c0.27614,0 0.5,0.22386 0.5,0.5c0,0.05652 -0.00938,0.11086 -0.02667,0.16153c0.09708,0.06635 0.16957,0.16604 0.201,0.28257c0.08671,-0.07087 0.17953,-0.13459 0.27997,-0.19014l0.12867,-0.12867l-0.0582,-0.22648l0.42085,-0.10815c0.19367,-0.2191 0.41935,-0.44251 0.68252,-0.70411l0.07058,-0.01184l-0.01432,-0.02527l0.4344,-0.2462c0.0745,-0.04408 0.16142,-0.06938 0.25426,-0.06938c0.27614,0 0.5,0.22386 0.5,0.5c0,0.03564 -0.00373,0.07041 -0.01082,0.10394c0.04619,-0.03168 0.09158,-0.06346 0.13596,-0.09543l0.36206,-0.36206c0.09048,-0.09048 0.21548,-0.14645 0.35355,-0.14645c0.13107,0 0.25037,0.05044 0.33953,0.13296c0.04463,-0.01715 0.08977,-0.03345 0.1354,-0.04885l0.32073,-0.32073c0.09048,-0.09048 0.21548,-0.14645 0.35355,-0.14645c0.17162,0 0.32304,0.08646 0.41308,0.2182c0.05067,-0.01729 0.105,-0.02667 0.16153,-0.02667c0.08707,0 0.16894,0.02226 0.24024,0.06139c0.18342,-0.09609 0.3694,-0.18527 0.55625,-0.26685l-0.06241,-0.12483l0.75715,-0.37857c0.06948,-0.03658 0.14862,-0.05728 0.2326,-0.05728c0.27614,0 0.5,0.22386 0.5,0.5c0,0.06785 -0.01351,0.13254 -0.038,0.19154c0.02448,0.05899 0.038,0.12369 0.038,0.19154c0,0.05652 -0.00938,0.11086 -0.02667,0.16153c0.09147,0.06252 0.16111,0.15463 0.19514,0.26254l0.36558,-0.23921c0.07983,-0.05397 0.17609,-0.08549 0.2797,-0.08549c0.16665,0 0.31425,0.08153 0.40511,0.20687c0.06032,-0.02581 0.12674,-0.04009 0.1965,-0.04009c0.23987,0 0.44029,0.16891 0.4888,0.39427c0.21976,0.04731 0.38584,0.23906 0.39396,0.47098l0.32585,-0.08146c0.04209,-0.01151 0.0864,-0.01765 0.13215,-0.01765c0.27614,0 0.5,0.22386 0.5,0.5c0,0.02764 -0.00224,0.05475 -0.00655,0.08116c0.02642,-0.00431 0.05353,-0.00655 0.08116,-0.00655c0.1598,0 0.30209,0.07496 0.39362,0.19165c0.27127,0.00562 0.48945,0.22727 0.48945,0.49989c0,0.13807 -0.05596,0.26307 -0.14645,0.35355l-0.22228,0.22228c0.05752,0.04868 0.10389,0.11011 0.13475,0.17994c0.08499,-0.06675 0.19214,-0.10656 0.30859,-0.10656c0.27614,0 0.5,0.22386 0.5,0.5c0,0.05938 -0.01035,0.11635 -0.02935,0.16919l-0.04673,0.14018c0.0482,0.07688 0.07608,0.16781 0.07608,0.26524c0,0.04574 -0.00614,0.09005 -0.01765,0.13215l-0.00759,0.03036c0.13094,0.09016 0.21677,0.24111 0.21677,0.4121c0,0.10506 -0.03241,0.20256 -0.08777,0.28304l-0.00878,0.01317c0.05339,-0.01945 0.11104,-0.03006 0.17116,-0.03006c0.23987,0 0.44029,0.16891 0.4888,0.39427c0.22536,0.04851 0.39427,0.24893 0.39427,0.4888c0,0.11645 -0.03981,0.2236 -0.10656,0.30859c0.17557,0.07759 0.2981,0.25326 0.2981,0.45756c0,0.10011 -0.02942,0.19335 -0.08009,0.27154l-0.52591,0.84146l-0.1368,-0.0855c-0.2497,0.46236 -0.54249,0.84268 -0.88472,1.20163c0.08085,0.03818 0.14982,0.09739 0.19985,0.17058c0.05067,-0.01729 0.105,-0.02667 0.16153,-0.02667c0.27614,0 0.5,0.22386 0.5,0.5c0,0.03602 -0.00381,0.07115 -0.01105,0.10501l0.10486,0.10519l0.52617,-0.1804c-0.07884,0.15545 -0.16198,0.30808 -0.24911,0.45799l0.24884,0.24884l-0.70711,0.70711l-0.03019,-0.03019c-0.01595,0.01326 -0.03207,0.02667 -0.04836,0.04023l-0.10955,0.16433l-0.04885,-0.03257c-0.00377,0.00313 -0.00755,0.00628 -0.01134,0.00942l0.02332,0.03805c-0.11961,0.09649 -0.25676,0.22894 -0.40623,0.38136c-0.64976,0.7628 -1.39905,1.45015 -2.19298,2.08598l-0.0369,0.00549l0.00784,0.01318l-0.55273,0.32873c-0.0457,0.02828 -0.09629,0.0494 -0.15021,0.0618c-0.36802,0.33548 -0.70241,0.70112 -0.96678,1.13033c0.11702,0.02461 0.21897,0.09015 0.29019,0.18094c0.1871,0.00387 0.34895,0.11052 0.43137,0.26578c0.04244,-0.03164 0.08518,-0.06393 0.1282,-0.09694l0.03798,-0.00607l-0.00714,-0.01273l0.48734,-0.27338c0.07409,-0.04342 0.16037,-0.06832 0.25245,-0.06832c0.23855,0 0.43807,0.16705 0.48798,0.39055c0.02814,-0.00491 0.05708,-0.00748 0.08663,-0.00748c0.08691,0 0.16865,0.02218 0.23985,0.06118l0.24027,-0.16288c0.08105,-0.05662 0.17965,-0.08983 0.28602,-0.08983c0.18728,0 0.35051,0.10296 0.43617,0.25537c0.15241,0.08566 0.25537,0.24889 0.25537,0.43617c0,0.09283 -0.0253,0.17976 -0.06938,0.25426l-0.00674,0.01189l0.15073,0c0.23987,0 0.44029,0.16891 0.4888,0.39427c0.22536,0.04851 0.39427,0.24893 0.39427,0.4888c0,0.13807 -0.05596,0.26307 -0.14645,0.35355l-0.70711,0.70711l-0.05649,-0.05649c-0.1294,0.21018 -0.26284,0.41844 -0.39952,0.62503c0.1697,0.05256 0.30074,0.19306 0.33986,0.36824c0.02814,-0.00491 0.05708,-0.00748 0.08663,-0.00748c0.27614,0 0.5,0.22386 0.5,0.5c0,0.04229 -0.00525,0.08335 -0.01513,0.12256c0.00379,-0.00304 0.00757,-0.00607 0.01136,-0.00911l0.03587,-0.00722l-0.00681,-0.01145l0.55273,-0.32873c0.07635,-0.04724 0.16636,-0.07451 0.26274,-0.07451c0.27614,0 0.5,0.22386 0.5,0.5c0,0.12295 -0.04438,0.23554 -0.11799,0.32261l-0.63808,0.7657l-0.10602,-0.08835c-0.2298,0.34657 -0.47874,0.68233 -0.73953,1.01145c0.17288,-0.08725 0.33721,-0.16155 0.48851,-0.22096l0.13512,-0.40535c0.06283,-0.20431 0.25307,-0.35282 0.47799,-0.35282c0.20293,0 0.37762,0.12089 0.45599,0.29458l0.14814,-0.14814c0.09048,-0.09048 0.21548,-0.14645 0.35355,-0.14645c0.27614,0 0.5,0.22386 0.5,0.5c0,0.10506 -0.03241,0.20256 -0.08777,0.28304l-0.37928,0.56892l-0.09809,-0.0654c-0.31168,0.75487 -0.73777,1.49722 -1.22163,2.22542c0.15192,0.0858 0.25448,0.24876 0.25448,0.43567c0,0.08398 -0.0207,0.16312 -0.05728,0.2326l-0.37857,0.75715l-0.19123,-0.09561c-0.10563,0.22933 -0.22518,0.45309 -0.35589,0.67223c0.01641,0.04951 0.0253,0.10244 0.0253,0.15746c0,0.11048 -0.03583,0.2126 -0.09652,0.29535l-0.57786,0.809l-0.05943,-0.04245c-0.1179,0.15402 -0.24357,0.31994 -0.37593,0.4927c-0.67053,1.07795 -1.5386,2.04124 -2.4443,2.96582c-0.00242,0.00358 -0.00484,0.00716 -0.00726,0.01074l-0.00657,0.00337c-0.00975,0.00994 -0.0195,0.01988 -0.02926,0.02982l0.00301,0.00301l-0.57461,0.57461l-0.00151,-0.00151c-0.10231,0.10192 -0.20465,0.20356 -0.30678,0.30505l-0.0609,0.01153l0.01344,0.02175l-0.49447,0.30549c-0.07777,0.04985 -0.17025,0.07876 -0.26948,0.07876c-0.27614,0 -0.5,-0.22386 -0.5,-0.5c0,-0.13807 0.05596,-0.26307 0.14645,-0.35355l0.57461,-0.57461l0.01019,0.01019c0.08276,-0.15191 0.16604,-0.30049 0.25003,-0.4461c-0.11087,0.11858 -0.21269,0.23636 -0.30342,0.35337l-0.07444,0.02814l0.01439,0.02076l-0.50157,0.34747c-0.1986,0.27434 -0.41971,0.53665 -0.66546,0.76431l0.17736,0.26604l-0.56892,0.37928c-0.08048,0.05536 -0.17797,0.08777 -0.28304,0.08777c-0.23855,0 -0.43807,-0.16705 -0.48798,-0.39055c-0.02814,0.00491 -0.05708,0.00748 -0.08663,0.00748c-0.03275,0 -0.06477,-0.00315 -0.09577,-0.00916c-0.031,0.00601 -0.06301,0.00916 -0.09577,0.00916c-0.10695,0 -0.20606,-0.03358 -0.28736,-0.09077l-0.10903,0.11889c-0.09145,0.1004 -0.22324,0.16342 -0.36975,0.16342c-0.27178,0 -0.49292,-0.21685 -0.49983,-0.48696c-0.06315,0.0288 -0.13334,0.04485 -0.20727,0.04485c-0.09699,0 -0.18753,-0.02762 -0.26418,-0.07541l-0.23036,0.20106c-0.08813,0.07775 -0.20388,0.12493 -0.33064,0.12493c-0.23855,0 -0.43807,-0.16705 -0.48798,-0.39055c-0.02814,0.00491 -0.05708,0.00748 -0.08663,0.00748c-0.15559,0 -0.29459,-0.07107 -0.38629,-0.18252l-0.20937,0.21894c-0.09107,0.09557 -0.21959,0.15512 -0.36202,0.15512c-0.17441,0 -0.32796,-0.0893 -0.41743,-0.22466c-0.0482,0.01547 -0.09958,0.02382 -0.15292,0.02382c-0.23659,0 -0.43479,-0.16432 -0.48672,-0.38505l-0.14649,-0.56624c-0.18074,-0.01953 -0.3326,-0.13538 -0.40322,-0.29518c-0.08499,0.06675 -0.19214,0.10656 -0.30859,0.10656c-0.16778,0 -0.31626,-0.08264 -0.40695,-0.20944l-0.14724,0.19632c-0.09098,0.12409 -0.23783,0.20466 -0.40349,0.20466c-0.27614,0 -0.5,-0.22386 -0.5,-0.5c0,-0.02304 0.00156,-0.04571 0.00457,-0.06792l-0.27053,0.14679c-0.03921,-0.15647 -0.06843,-0.30293 -0.08838,-0.44119c-0.08267,0.06047 -0.18461,0.09617 -0.29489,0.09617c-0.22453,0 -0.4145,-0.148 -0.47766,-0.35177c-0.26151,0.04906 -0.48764,0.01128 -0.63353,-0.16944c-0.43347,-0.53698 -0.14446,-1.27189 0.30835,-1.91675l0.06621,-0.46346l0.11603,0.01658c0.03061,-0.32183 0.09064,-0.63836 0.19479,-0.94183l0.10131,-0.0624l-0.02906,-0.02906l0.57461,-0.57461c0.09048,-0.09048 0.21548,-0.14645 0.35355,-0.14645c0.27614,0 0.5,0.22386 0.5,0.5c0,0.03125 -0.00287,0.06183 -0.00835,0.09149l-0.03129,0.18777c0.0367,-0.00858 0.07495,-0.01311 0.11426,-0.01311c0.24723,0 0.45255,0.17943 0.49283,0.41517l0.16081,-0.12061c0.08425,-0.06462 0.18966,-0.10303 0.30404,-0.10303c0.1598,0 0.30209,0.07496 0.39362,0.19165c0.18465,0.00382 0.34471,0.10775 0.42809,0.25971c0.13561,-0.12816 0.28525,-0.24074 0.45524,-0.33429l-0.09431,-0.28294l0.56354,-0.18785c0.05284,-0.019 0.1098,-0.02935 0.16919,-0.02935c0.27614,0 0.5,0.22386 0.5,0.5c0,0.11438 -0.03841,0.21979 -0.10303,0.30404l-0.1238,0.16506c0.05023,-0.01695 0.10404,-0.02614 0.15999,-0.02614c0.15374,0 0.29127,0.06939 0.38299,0.17855l0.13129,-0.16411c0.09154,-0.11646 0.2337,-0.19126 0.39332,-0.19126c0.10421,0 0.20098,0.03188 0.28108,0.08643l0.13152,-0.13152c0.09048,-0.09048 0.21548,-0.14645 0.35355,-0.14645c0.15378,0 0.29135,0.06943 0.38307,0.17865c0.05134,0.06114 0.08832,0.13475 0.10573,0.21562c0.02967,0.00639 0.05836,0.01541 0.08581,0.0268c0.05899,-0.02448 0.12369,-0.038 0.19154,-0.038c0.21304,0 0.39496,0.13324 0.46698,0.32094l0.08721,-0.11628c0.09098,-0.12409 0.23783,-0.20466 0.40349,-0.20466c0.21201,0 0.39319,0.13195 0.46592,0.3182c0.02162,-0.01803 0.04328,-0.03585 0.06498,-0.05345l-0.11831,-0.11831l0.38307,-0.38307c0.09048,-0.09048 0.21548,-0.14645 0.35355,-0.14645c0.23987,0 0.44029,0.16891 0.4888,0.39427c0.06383,0.01374 0.12313,0.03967 0.17535,0.07523l0.32305,-0.32305c0.09048,-0.09048 0.21548,-0.14645 0.35355,-0.14645c0.13071,0 0.2497,0.05016 0.33879,0.13227c0.26738,-0.24237 0.53367,-0.47938 0.78639,-0.71329zM220.51634,183.82133c-0.10732,0.08287 -0.21606,0.16441 -0.32684,0.24372l0.09885,0.1318c0.07442,-0.12351 0.15037,-0.24924 0.22799,-0.37552zM220.486,169.83468c-0.13118,0.06156 -0.26354,0.12088 -0.39692,0.17815l0.03314,0.04419l-0.19268,0.14451l0.06619,0.08274c0.16147,-0.15619 0.32497,-0.30445 0.49026,-0.44959zM215.10012,166.97922l0.00856,0.01284c-0.00018,-0.00549 -0.00027,-0.01101 -0.00027,-0.01655c0,-0.00045 0,-0.0009 0,-0.00134zM207.41951,192.76704c-0.03024,0.08594 -0.05877,0.17844 -0.0852,0.27865c-0.01859,0.0705 0.01532,0.08332 0.07657,0.06152l0.051,-0.20399l0.14453,0.03613c0.01597,-0.06947 0.03403,-0.13594 0.05417,-0.20124l-0.05867,-0.05867zM221.53462,188.7059c0.00649,-0.01724 0.01319,-0.03446 0.0201,-0.05164c-0.14388,0.12502 -0.28878,0.24682 -0.43575,0.36356c0.04297,0.03967 0.07897,0.08679 0.10595,0.1393l0.07673,-0.11509l0.00677,0.00451c0.06884,-0.10139 0.14462,-0.21624 0.2262,-0.34065zM219.91918,191.57012c-0.00495,0.0096 -0.0099,0.01921 -0.01486,0.02882c0.25566,-0.2391 0.51809,-0.47189 0.78581,-0.69591c0.08074,-0.10659 0.1644,-0.20807 0.25093,-0.30341c-0.12295,-0.061 -0.21723,-0.1711 -0.25718,-0.30465l-0.02197,-0.01098c-0.20217,0.44794 -0.45658,0.87389 -0.74274,1.28614z" fill="#000000" stroke="none" stroke-width="0.5" />
			<path id="char-1" d="M242.14618,195.16434c-0.13691,-0.09127 -0.19872,-0.19756 -0.22005,-0.2991l-0.46029,0c-0.12014,0 -0.23038,-0.04237 -0.3166,-0.11299l0.01934,0.02901l-0.56892,0.37928c-0.08048,0.05536 -0.17797,0.08777 -0.28304,0.08777c-0.11896,0 -0.22821,-0.04154 -0.31405,-0.11091c-0.05595,0.02478 -0.11298,0.04829 -0.17122,0.07046l0.06878,0.20633l-0.56354,0.18785c-0.05284,0.019 -0.1098,0.02935 -0.16919,0.02935c-0.27614,0 -0.5,-0.22386 -0.5,-0.5c0,-0.05584 0.00915,-0.10955 0.02604,-0.15969l-0.32171,0.32171c-0.09048,0.09048 -0.21548,0.14645 -0.35355,0.14645c-0.27614,0 -0.5,-0.22386 -0.5,-0.5c0,-0.09585 0.02697,-0.1854 0.07373,-0.26147l0.28237,-0.4782l0.02053,0.01212l0.00927,-0.05691c0.02356,-0.02547 0.04722,-0.05172 0.071,-0.07871c-0.0469,0.01456 -0.09676,0.02241 -0.14846,0.02241c-0.27614,0 -0.5,-0.22386 -0.5,-0.5c0,-0.05938 0.01035,-0.11635 0.02935,-0.16919l0.18785,-0.56354l0.01171,0.0039l0.0007,-0.03713c0.16711,-0.3298 0.35986,-0.66336 0.57502,-0.9923l-0.57519,0.43139c-0.08425,0.06462 -0.18966,0.10303 -0.30404,0.10303c-0.27614,0 -0.5,-0.22386 -0.5,-0.5c0,-0.10506 0.03241,-0.20256 0.08777,-0.28304l0.29241,-0.43862l-0.72536,0.54402c-0.08425,0.06462 -0.18966,0.10303 -0.30404,0.10303c-0.27614,0 -0.5,-0.22386 -0.5,-0.5c0,-0.11079 0.03603,-0.21316 0.09701,-0.29603l0.39089,-0.54517c0.25708,-0.35806 0.61432,-0.88219 1.03598,-1.48151l-0.25305,0.10122c-0.06025,0.02573 -0.12657,0.03997 -0.19622,0.03997c-0.27614,0 -0.5,-0.22386 -0.5,-0.5c0,-0.13891 0.05665,-0.2646 0.14811,-0.35521l0.51293,-0.50853c0.53187,-0.5273 1.06688,-1.09531 1.61516,-1.66527l0.23395,-0.39337l0.01199,0.00713l0.00668,-0.03619c0.17937,-0.22467 0.49142,-0.66761 0.87273,-1.19765c-0.17586,0.09436 -0.35615,0.18521 -0.54166,0.2726l0.04701,0.06267l-0.76211,0.57158c-0.08425,0.06462 -0.18966,0.10303 -0.30404,0.10303c-0.27614,0 -0.5,-0.22386 -0.5,-0.5c0,-0.14444 0.06124,-0.27457 0.15918,-0.36584l0.30391,-0.28472c-0.25545,-0.01864 -0.45762,-0.22919 -0.46298,-0.48811c-0.11668,-0.09153 -0.19165,-0.23382 -0.19165,-0.39362c0,-0.00798 0.00019,-0.01591 0.00056,-0.0238l-0.36674,0.24449c-0.08048,0.05536 -0.17797,0.08777 -0.28304,0.08777c-0.27614,0 -0.5,-0.22386 -0.5,-0.5c0,-0.13807 0.05596,-0.26307 0.14645,-0.35355l0.38307,-0.38307l0.00025,0.00025l0.00032,-0.00081c0.48537,-0.48227 0.9879,-1.01739 1.50802,-1.567c-0.00939,-0.0383 -0.01438,-0.07833 -0.01438,-0.11952c0,-0.12602 0.04662,-0.24115 0.12356,-0.32909l0.33422,-0.38639l-0.25768,0c0,0 0,0 0,0c-0.23987,0 -0.44029,-0.16891 -0.4888,-0.39427c-0.22536,-0.04851 -0.39427,-0.24893 -0.39427,-0.4888c0,-0.13943 0.05707,-0.26552 0.14912,-0.35621l0.10289,-0.10148h-0.32662c-0.27614,0 -0.5,-0.22386 -0.5,-0.5c0,-0.1233 0.04463,-0.23617 0.11861,-0.32335l0.12624,-0.15085c-0.04083,0.01077 -0.08371,0.01651 -0.12792,0.01651c-0.27614,0 -0.5,-0.22386 -0.5,-0.5c0,-0.14913 0.06529,-0.28301 0.16884,-0.37462l0.73903,-0.65968l0.00366,0.0041l0.00916,-0.01517c0.34412,-0.26773 0.74595,-0.6806 1.17806,-1.14053c-0.02174,0.00289 -0.04392,0.00438 -0.06645,0.00438c-0.24736,0 -0.45277,-0.17962 -0.4929,-0.41555l-0.4601,0.18404c-0.06025,0.02573 -0.12657,0.03997 -0.19622,0.03997c-0.27614,0 -0.5,-0.22386 -0.5,-0.5c0,-0.16566 0.08057,-0.31251 0.20466,-0.40349l0.7517,-0.56377c0.13618,-0.11686 0.27637,-0.24012 0.4202,-0.3681c0.01147,-0.02858 0.0255,-0.05585 0.04181,-0.08153c-0.25776,-0.02005 -0.46068,-0.23557 -0.46068,-0.49848c0,-0.13807 0.05596,-0.26307 0.14645,-0.35355l0.38307,-0.38307c0.03613,-0.03613 0.07642,-0.07884 0.1204,-0.12706l-0.55534,0.18511c-0.05284,0.019 -0.1098,0.02935 -0.16919,0.02935c-0.04294,0 -0.08462,-0.00541 -0.12439,-0.0156l-0.15486,0.11062c-0.08276,0.06068 -0.18487,0.09652 -0.29535,0.09652c-0.27284,0 -0.49465,-0.21854 -0.4999,-0.49013c-0.07748,0.17584 -0.25329,0.29859 -0.45778,0.29859c-0.07414,0 -0.14452,-0.01614 -0.2078,-0.04509c-0.35774,0.50886 -0.76834,0.97013 -1.30179,1.34231l0.13436,0.22393l-0.85045,0.51027c-0.07668,0.04784 -0.16726,0.07548 -0.26429,0.07548c-0.27614,0 -0.5,-0.22386 -0.5,-0.5c0,-0.10693 0.03357,-0.20602 0.09073,-0.2873c-0.02043,-0.02904 -0.03784,-0.06036 -0.05178,-0.09349c-0.07467,0.03082 -0.15,0.06037 -0.22602,0.08859l0.07741,0.19352l-0.91795,0.36718c-0.06025,0.02573 -0.12657,0.03997 -0.19622,0.03997c-0.27614,0 -0.5,-0.22386 -0.5,-0.5c0,-0.1576 0.07292,-0.29817 0.18686,-0.38982l0.55482,-0.45342c-0.01649,0.00164 -0.03322,0.00248 -0.05014,0.00248c-0.20293,0 -0.37762,-0.12089 -0.45599,-0.29458l-0.33967,0.33967c-0.09048,0.09048 -0.21548,0.14645 -0.35355,0.14645c-0.27614,0 -0.5,-0.22386 -0.5,-0.5c0,-0.10855 0.03459,-0.20903 0.09336,-0.291l0.36021,-0.51675l0.02583,0.01801l0.01873,-0.07315c0.12286,-0.09978 0.28636,-0.26947 0.47602,-0.47973c-0.26359,-0.01402 -0.47301,-0.2322 -0.47301,-0.49928c0,-0.13807 0.05596,-0.26307 0.14645,-0.35355c0.2357,-0.2357 1.17851,-1.17851 1.41421,-1.41421c0,0 0.23487,-0.23487 0.51318,-0.13031c0.28365,-0.1761 0.54474,-0.34113 0.69724,-0.49636l0.08199,-0.01511l-0.01324,-0.02648l0.75715,-0.37857c0.06948,-0.03658 0.14862,-0.05728 0.2326,-0.05728c0.2372,0 0.43583,0.16517 0.48713,0.38678c0.27238,-0.38593 0.53567,-0.75655 0.89412,-1.11359l-0.14346,-0.14346l0.70711,-0.70711c0.09048,-0.09048 0.21548,-0.14645 0.35355,-0.14645c0.05652,0 0.11086,0.00938 0.16153,0.02667c0.09004,-0.13174 0.24147,-0.2182 0.41308,-0.2182c0.27614,0 0.5,0.22386 0.5,0.5c0,0.0222 -0.00145,0.04405 -0.00425,0.06548c0.24828,-0.31828 0.50945,-0.62354 0.79026,-0.90906c0.16055,-0.22196 0.31761,-0.44189 0.46813,-0.65998l0.09601,-0.03079l-0.02059,-0.03089l0.56892,-0.37928c0.08048,-0.05536 0.17797,-0.08777 0.28304,-0.08777c0.27614,0 0.5,0.22386 0.5,0.5c0,0.08398 -0.0207,0.16312 -0.05728,0.2326l-0.16293,0.32586c0.10265,-0.09253 0.20754,-0.18181 0.31499,-0.26739c0.06149,-0.07876 0.11909,-0.15562 0.17227,-0.23041l0.07196,0.0122l-0.04334,-0.04334l0.57461,-0.57461c0,0 0,0 0,0c0.09048,-0.09048 0.21548,-0.14645 0.35355,-0.14645c0.27614,0 0.5,0.22386 0.5,0.5c0,0.02574 -0.00194,0.05102 -0.00569,0.07571c0.06486,-0.05137 0.12936,-0.10263 0.19345,-0.15379l0.03619,-0.00668l-0.00713,-0.01199l0.55273,-0.32873c0.07635,-0.04724 0.16636,-0.07451 0.26274,-0.07451c0.27614,0 0.5,0.22386 0.5,0.5c0,0.13807 -0.05596,0.26307 -0.14645,0.35355l-0.38307,0.38307l-0.08611,-0.08611l-0.02152,0.0128c-0.00546,0.00819 -0.01094,0.01636 -0.01644,0.02454c0.04999,0.07784 0.07899,0.17045 0.07899,0.26983c0,0.17162 -0.08647,0.32305 -0.21822,0.41309l-0.48808,0.34295c-0.10242,0.12496 -0.21105,0.25741 -0.32529,0.39558c-0.00043,0.00094 -0.00086,0.00187 -0.00129,0.00281c0.08122,-0.03995 0.1619,-0.07665 0.24191,-0.10982c0.12621,-0.09563 0.24607,-0.18995 0.35822,-0.28301l0.00442,-0.00165l-0.00093,-0.00116l0.77776,-0.62221c0.08605,-0.07005 0.19585,-0.11205 0.31546,-0.11205c0.27614,0 0.5,0.22386 0.5,0.5c0,0.15505 -0.07058,0.29362 -0.18135,0.38533l-0.76312,0.64056l-0.01506,-0.01795l-0.00636,0.00509c-0.66162,0.54912 -1.34102,1.16405 -2.04001,1.77885c0.0737,0.0871 0.11814,0.19975 0.11814,0.32279l0,0.57258l0.28473,-0.17084c0.07668,-0.04784 0.16726,-0.07548 0.26429,-0.07548c0.16335,0 0.3084,0.07833 0.39964,0.19947l0.68775,-0.68775c0,0 0,0 0,0c0.09048,-0.09048 0.21548,-0.14645 0.35355,-0.14645c0.27614,0 0.5,0.22386 0.5,0.5c0,0.10693 -0.03357,0.20602 -0.09073,0.2873c0.05717,0.08129 0.09073,0.18038 0.09073,0.2873c0,0.13807 -0.05596,0.26307 -0.14645,0.35355l-0.50115,0.50115c-0.30958,0.30958 -0.61574,0.60156 -0.92452,0.87347c-0.01731,0.04061 -0.03983,0.07845 -0.06673,0.1127c0.17557,0.07759 0.2981,0.25326 0.2981,0.45756c0,0.13807 -0.05596,0.26307 -0.14645,0.35355l-0.70711,0.70711l-0.06008,-0.06008c-0.01494,0.00981 -0.02986,0.01959 -0.04477,0.02934c-0.23152,0.33918 -0.47868,0.66454 -0.73937,0.97825c0.5222,-0.30063 0.98038,-0.56164 1.28318,-0.75619l0.01704,-0.00224l-0.00316,-0.00572l0.60848,-0.33641c0.07352,-0.04251 0.15888,-0.06684 0.24992,-0.06684c0.27614,0 0.5,0.22386 0.5,0.5c0,0.17631 -0.09125,0.3313 -0.2291,0.42033l-0.56372,0.37581c0.01729,0.05068 0.02667,0.10502 0.02667,0.16155c0,0.13807 -0.05596,0.26307 -0.14645,0.35355l-0.70711,0.70711l-0.08918,-0.08918c-0.0277,0.03367 -0.05563,0.06716 -0.08378,0.10047c0.11461,0.02166 0.21539,0.08243 0.28795,0.16791l0.11001,-0.09167l0.21085,0.25302c0.15496,-0.07107 0.31426,-0.13975 0.47846,-0.20607l-0.21145,0.49493l0.19579,0.19579l-0.38307,0.38307l-0.03337,-0.03337l-0.01926,0.01605l-0.03806,0.08909c-0.04096,0.01428 -0.0816,0.02903 -0.12194,0.04424l-0.20598,0.17165l-0.05459,-0.06551c-0.04376,0.01915 -0.08717,0.0388 -0.13026,0.05894c-0.04117,0.06553 -0.08628,0.13065 -0.13485,0.19533c0.21047,-0.10983 0.4073,-0.21335 0.58176,-0.30987l0.45663,-0.34247c0.08425,-0.06462 0.18966,-0.10303 0.30404,-0.10303c0.06775,0 0.13235,0.01347 0.19127,0.03789l0.00628,-0.00234c0.05736,-0.02293 0.11997,-0.03555 0.18552,-0.03555c0.27614,0 0.5,0.22386 0.5,0.5c0,0.1996 -0.11696,0.37189 -0.28608,0.45206l-0.68509,0.34255l-0.21946,0.21916l-0.00026,-0.00026l-0.00055,0.00107c-0.20903,0.20684 -0.41443,0.41758 -0.61884,0.6276c-0.10998,0.16145 -0.23354,0.32393 -0.36818,0.48681l0.00659,0.00764l0.22491,-0.07935c0.21928,-0.18062 0.41168,-0.33619 0.56415,-0.45868l-0.01886,-0.02357l0.77776,-0.62221c0.08605,-0.07005 0.19585,-0.11205 0.31546,-0.11205c0.27614,0 0.5,0.22386 0.5,0.5c0,0.15158 -0.06745,0.28741 -0.17398,0.3791l-0.54295,0.47251l-0.00277,-0.00318l-0.00511,0.00989c-0.09672,0.07739 -0.19388,0.16007 -0.2915,0.24732c0.03741,0.07008 0.05862,0.15012 0.05862,0.23511c0,0.08398 -0.0207,0.16312 -0.05728,0.2326l-0.22174,0.44348c0.05083,-0.01741 0.10536,-0.02686 0.1621,-0.02686c0.27614,0 0.5,0.22386 0.5,0.5c0,0.13807 -0.05596,0.26307 -0.14645,0.35355l-0.44211,0.44211c-0.06468,0.06467 -0.12901,0.12866 -0.19304,0.19198c-0.12158,0.20174 -0.25202,0.40211 -0.38943,0.60104l0.3804,-0.27172l0.18914,0.26479c0.15883,-0.06594 0.31979,-0.12646 0.48299,-0.18111l-0.23134,0.47336l0.20338,0.20338l-0.57461,0.57461l-0.00605,-0.00605l-0.01082,0.02215c-0.07358,0.06108 -0.14697,0.12232 -0.2202,0.18368c0.0003,0.00705 0.00044,0.01415 0.00044,0.02127c0,0.11438 -0.03841,0.21979 -0.10303,0.30404l-0.57158,0.76211l-0.09784,-0.07338c-0.03637,0.04396 -0.07268,0.08788 -0.10893,0.13176c-0.06306,0.10717 -0.12819,0.21345 -0.19521,0.31892l0.48509,-0.32339c0.08048,-0.05536 0.17797,-0.08777 0.28304,-0.08777c0.27614,0 0.5,0.22386 0.5,0.5c0,0.07654 -0.0172,0.14907 -0.04794,0.21392l-0.3052,0.6828l-0.02957,-0.01322l-0.01505,0.09269c-0.24751,0.25131 -0.50009,0.51005 -0.75771,0.77258c0.16561,-0.10482 0.31314,-0.19969 0.4358,-0.28256l0.07068,0.00216l-0.00911,-0.02734l0.56354,-0.18785c0.05284,-0.019 0.1098,-0.02935 0.16919,-0.02935c0.27614,0 0.5,0.22386 0.5,0.5c0,0.17631 -0.09125,0.3313 -0.2291,0.42033l-0.8256,0.5504l-0.02546,-0.03819c-0.14539,0.15367 -0.29256,0.30559 -0.44149,0.45573c0.13473,0.04575 0.24365,0.14738 0.29916,0.27729c0.15758,0.08415 0.26481,0.25022 0.26481,0.44135c0,0.09704 -0.02764,0.18762 -0.07548,0.26429l-0.51027,0.85045l-0.08642,-0.05185l-0.00244,0.00326l-0.03148,-0.02361l-0.00568,-0.00341c-0.18036,0.41623 -0.38976,0.82152 -0.62166,1.21643c0.0468,-0.0321 0.09176,-0.06272 0.13463,-0.09175l-0.01135,-0.01419l0.77776,-0.62221c0.08605,-0.07005 0.19585,-0.11205 0.31546,-0.11205c0.27614,0 0.5,0.22386 0.5,0.5c0,0.13807 -0.05596,0.26307 -0.14645,0.35355l-0.33967,0.33967c0.17369,0.07837 0.29458,0.25306 0.29458,0.45599c0,0.04574 -0.00614,0.09005 -0.01765,0.13215l-0.18882,0.75527l-0.18693,-0.04673l0.0524,0.07345c-0.01303,0.01186 -0.02601,0.02372 -0.03893,0.03558c0.11482,0.09161 0.18839,0.23274 0.18839,0.39104c0,0.10506 -0.03241,0.20256 -0.08777,0.28304l-0.12219,0.18328c0.03014,-0.00567 0.06124,-0.00864 0.09303,-0.00864c0.27614,0 0.5,0.22386 0.5,0.5c0,0.10506 -0.03241,0.20256 -0.08777,0.28304l-0.37928,0.56892c0,0 -0.27735,0.41603 -0.69338,0.13868zM238.67332,194.82883l0.05792,0.05792c0.00566,-0.01007 0.01166,-0.01993 0.01799,-0.02956l0.08578,-0.13521c-0.05355,0.03636 -0.10743,0.072 -0.16169,0.10685zM237.28107,190.9476c0.08184,-0.05611 0.16914,-0.12098 0.26125,-0.19329c-0.00342,-0.00237 -0.00682,-0.00478 -0.01018,-0.00724c-0.13524,0.08573 -0.27141,0.16849 -0.40852,0.24798l0.06052,0.08069l0.03496,-0.05243l0.03365,0.02243zM241.84327,185.18837c0.06449,-0.03979 0.12954,-0.07837 0.19517,-0.11568l-0.05938,-0.08907c-0.04449,0.06858 -0.08978,0.13682 -0.13579,0.20474zM241.67651,169.46549c-0.01329,0.06842 -0.02969,0.13536 -0.04899,0.20097l0.33495,-0.20097zM238.76747,171.42141c-0.08508,0.03005 -0.17212,0.05741 -0.26156,0.08186l0.05193,0.1558c0.06296,-0.06925 0.1333,-0.14949 0.20963,-0.23766zM236.96474,171.02397c-0.01478,0.01039 -0.03015,0.02001 -0.04604,0.02878l-0.0678,0.21996l0.15027,-0.22541c-0.0125,-0.00726 -0.02465,-0.01505 -0.03643,-0.02334z" fill="#000000" stroke="none" stroke-width="0.5" />
			<path id="char-8" d="M259.08721,181.64922c-0.41468,0 -0.48544,-0.34392 -0.49752,-0.46129c-0.00913,0.00582 -0.01845,0.01136 -0.02797,0.01659l-0.61509,0.6356c0.17649,0.0772 0.29982,0.25335 0.29982,0.45832c0,0.1996 -0.11696,0.37189 -0.28608,0.45206l-0.88198,0.44099c-0.07586,0.05901 -0.15129,0.11733 -0.22639,0.17496c-0.26955,0.24501 -0.54095,0.48793 -0.8122,0.73072c0.26819,0.00905 0.48283,0.22932 0.48283,0.49971c0,0.05938 -0.01035,0.11635 -0.02935,0.16919l-0.09619,0.28857c0.00286,-0.00005 0.00574,-0.00007 0.00861,-0.00007c0.27614,0 0.5,0.22386 0.5,0.5c0,0.13807 -0.05596,0.26307 -0.14645,0.35355l-0.10413,0.10413h0.51672c0.27614,0 0.5,0.22386 0.5,0.5c0,0.18032 -0.09545,0.33835 -0.23859,0.4263l-0.09426,0.06c0.19394,0.06878 0.33284,0.25386 0.33284,0.47138c0,0.17788 -0.09289,0.33407 -0.23281,0.4227c0.15329,0.08541 0.25698,0.24914 0.25698,0.43707c0,0.11424 -0.03831,0.21954 -0.10279,0.30373l-0.37642,0.50276c0.14597,0.07851 0.24845,0.22744 0.26197,0.40132c0.07739,-0.04914 0.16921,-0.07761 0.26767,-0.07761c0.27614,0 0.5,0.22386 0.5,0.5c0,0.11095 -0.03614,0.21346 -0.09728,0.2964l0.00271,-0.0009c0.05284,-0.019 0.1098,-0.02935 0.16919,-0.02935c0.27614,0 0.5,0.22386 0.5,0.5c0,0.02764 -0.00224,0.05475 -0.00655,0.08116c0.02642,-0.00431 0.05353,-0.00655 0.08116,-0.00655c0.27614,0 0.5,0.22386 0.5,0.5c0,0.14536 -0.06203,0.27623 -0.16106,0.36759l-0.14774,0.1371c0.00985,0.03669 0.01564,0.07505 0.01684,0.11456c0.25243,-0.1738 0.48747,-0.32884 0.65239,-0.45281l0.03035,0.02052l-0.01892,-0.02838l0.56892,-0.37928c0.08048,-0.05536 0.17797,-0.08777 0.28304,-0.08777c0.1598,0 0.30209,0.07496 0.39362,0.19165c0.27127,0.00562 0.48945,0.22727 0.48945,0.49989c0,0.08398 -0.0207,0.16312 -0.05728,0.2326l-0.37857,0.75715l-0.16238,-0.08119c-0.05526,0.11083 -0.1136,0.21864 -0.17476,0.32402c0.31623,-0.16857 0.61362,-0.31736 0.85374,-0.44445l0.41942,-0.38804c0.08928,-0.08311 0.209,-0.13395 0.3406,-0.13395c0.11623,0 0.2232,0.03966 0.30811,0.10619c0.2384,-0.03486 0.44869,0.0257 0.60622,0.21849c0.06772,0.08288 0.11584,0.17007 0.1468,0.26065c0.2265,0.04765 0.39655,0.24861 0.39655,0.48928c0,0.03867 -0.00439,0.07632 -0.0127,0.11248c0.16879,-0.09682 0.32805,-0.18825 0.47167,-0.27435l0.47206,-0.34585c0.00973,-0.03791 0.02379,-0.07408 0.04162,-0.10795l0.37857,-0.75715l0.20932,0.10466c0.48182,-0.82279 1.19631,-1.49227 1.96683,-2.12547c0.04305,-0.04297 0.08555,-0.08532 0.12757,-0.12708c-0.04618,-0.07574 -0.07279,-0.16473 -0.07279,-0.25993c0,-0.10879 0.03474,-0.20946 0.09374,-0.29153l0.56947,-0.81452l0.08934,0.06246c0.05415,-0.10735 0.10991,-0.21369 0.16723,-0.31904c-0.24257,0.20155 -0.47308,0.39035 -0.67979,0.56342l-0.0289,0.00639l0.00636,0.00954l-0.56892,0.37928c-0.08048,0.05536 -0.17797,0.08777 -0.28304,0.08777c-0.27614,0 -0.5,-0.22386 -0.5,-0.5c0,-0.15574 0.07121,-0.29486 0.18284,-0.38656l0.76529,-0.63774l0.01291,0.0155l0.48146,-0.63426l0.01529,0.0116c0.13989,-0.18449 0.28152,-0.36836 0.42432,-0.55174c-0.01364,0.00112 -0.02743,0.00169 -0.04135,0.00169c-0.27614,0 -0.5,-0.22386 -0.5,-0.5c0,-0.11732 0.04041,-0.2252 0.10806,-0.31049l0.59471,-0.76463c-0.06197,0.02753 -0.13059,0.04283 -0.20277,0.04283c-0.27614,0 -0.5,-0.22386 -0.5,-0.5c0,-0.05938 0.01035,-0.11635 0.02935,-0.16919l0.01527,-0.04581l-0.33312,0.11104c-0.05284,0.019 -0.1098,0.02935 -0.16919,0.02935c-0.27614,0 -0.5,-0.22386 -0.5,-0.5c0,-0.10693 0.03357,-0.20602 0.09073,-0.2873c-0.05717,-0.08129 -0.09073,-0.18038 -0.09073,-0.2873c0,-0.10011 0.02942,-0.19335 0.08009,-0.27154l0.52591,-0.84146l0.07205,0.04503c0.0984,-0.24048 0.20482,-0.47407 0.32154,-0.70289c-0.04092,0.02446 -0.08199,0.04459 -0.12317,0.05987l-0.61652,0.55033c-0.0886,0.0798 -0.20588,0.12837 -0.3345,0.12837c-0.27614,0 -0.5,-0.22386 -0.5,-0.5c0,-0.13807 0.05596,-0.26307 0.14645,-0.35355l0.38307,-0.38307l0.02116,0.02116l0.22835,-0.20384c0.22078,-0.35777 0.46566,-0.7091 0.71877,-1.05502c-0.33806,0.194 -0.69063,0.36575 -1.02901,0.53387l-0.72659,0.61498c-0.08744,0.07499 -0.20109,0.1203 -0.32532,0.1203c-0.27614,0 -0.5,-0.22386 -0.5,-0.5c0,-0.09247 0.0251,-0.17907 0.06886,-0.25337l0.04206,-0.07459c-0.44132,0.37632 -0.88349,0.76256 -1.31507,1.19044l-0.22058,0.38918c-0.08462,0.15603 -0.24985,0.26198 -0.43982,0.26198c-0.27614,0 -0.5,-0.22386 -0.5,-0.5c0,-0.06965 0.01424,-0.13598 0.03997,-0.19622l0.13014,-0.32534c-0.07234,0.04068 -0.15582,0.06388 -0.24472,0.06388c-0.27614,0 -0.5,-0.22386 -0.5,-0.5c0,-0.02954 0.00256,-0.05849 0.00748,-0.08663c-0.10559,-0.02358 -0.19858,-0.08055 -0.26731,-0.15926c-0.18042,-0.06544 -0.31247,-0.23177 -0.32797,-0.43081c-0.00347,0.00287 -0.00693,0.00573 -0.0104,0.0086l-0.47006,0.45337l-0.1943,-0.20145l-0.20938,0.07886c-0.07721,0.06672 -0.15006,0.13005 -0.21701,0.18924c-0.23262,0.25533 -0.52944,0.53271 -0.91581,0.89504c-0.00035,0.00033 -0.0007,0.00066 -0.00106,0.00099l0.15816,0.01818c0,0 0,0.5 -0.5,0.5zM268.40486,184.72457c0.05228,-0.08992 0.10549,-0.17918 0.15949,-0.26788l-0.13581,0.12455c-0.03269,0.03019 -0.06943,0.05607 -0.10929,0.07674zM256.32826,186.33911c0.07863,-0.03277 0.16716,-0.0564 0.26898,-0.06985v-0.19913zM256.13492,186.45101c0.0034,-0.00261 0.00682,-0.00519 0.01026,-0.00775l-0.0025,-0.0025c-0.00258,0.00342 -0.00517,0.00684 -0.00776,0.01025zM271.0264,180.71931l0.62947,-0.37768c0.07668,-0.04784 0.16726,-0.07548 0.26429,-0.07548c0.27614,0 0.5,0.22386 0.5,0.5c0,0.16566 -0.08057,0.31251 -0.20466,0.40349l-0.69219,0.51915c-0.10016,0.20563 -0.21481,0.43846 -0.34268,0.68496c0.12027,0.00631 0.22927,0.05512 0.31229,0.13168l0.23102,-0.09241c0.06025,-0.02573 0.12657,-0.03997 0.19622,-0.03997c0.27614,0 0.5,0.22386 0.5,0.5c0,0.19078 -0.10685,0.3566 -0.26397,0.44089l-0.69807,0.39166c-0.03105,0.03927 -0.06307,0.08078 -0.09601,0.1243l-0.02515,0.07544h0.39166c0.27614,0 0.5,0.22386 0.5,0.5c0,0.13807 -0.05596,0.26307 -0.14645,0.35355l0,0l-0.10711,0.10711c0.16396,0.01791 0.30409,0.11508 0.38126,0.25239c0.15241,0.08566 0.25537,0.24889 0.25537,0.43617c0,0.10506 -0.03241,0.20256 -0.08777,0.28304l-0.37928,0.56892l-0.01632,-0.01088l-0.0109,0.04791c-0.18795,0.19401 -0.36965,0.38751 -0.54759,0.57939c0.16351,0.08221 0.27571,0.2515 0.27571,0.44699c0,0.05938 -0.01035,0.11635 -0.02935,0.16919l-0.09619,0.28857c0.00286,-0.00005 0.00574,-0.00007 0.00861,-0.00007c0.27614,0 0.5,0.22386 0.5,0.5c0,0.0624 -0.01143,0.12213 -0.03231,0.17721l0.58799,-0.3965c0.08087,-0.05622 0.17912,-0.08918 0.28508,-0.08918c0.27614,0 0.5,0.22386 0.5,0.5c0,0.15962 -0.0748,0.30178 -0.19126,0.39332l-0.77726,0.62181l-0.03224,-0.0403c-0.06697,0.06156 -0.1325,0.1263 -0.19675,0.19387c-0.10939,0.13076 -0.22077,0.26032 -0.33402,0.38871c-1.30146,1.6578 -2.13683,4.35347 -4.13996,4.60509v0.27513h-0.57461c-0.21003,0 -0.38982,-0.1295 -0.46386,-0.31302c-0.4734,0.35033 -0.94701,0.69136 -1.41524,1.02425l-0.07924,0.0006l0.00955,0.02865l-0.56354,0.18785c-0.05284,0.019 -0.1098,0.02935 -0.16919,0.02935c-0.25759,0 -0.46968,-0.19478 -0.49702,-0.44509l-0.10711,0.10711c-0.09048,0.09048 -0.21548,0.14645 -0.35355,0.14645c-0.07463,0 -0.14545,-0.01635 -0.20905,-0.04567c-0.04644,0.01425 -0.09577,0.02192 -0.14688,0.02192c-0.10625,0 -0.20476,-0.03314 -0.28576,-0.08965c-0.02625,0.02627 -0.05265,0.05258 -0.07919,0.07895l-0.06161,0.01038l0.01414,0.02289l-0.49447,0.30549c-0.07777,0.04985 -0.17025,0.07876 -0.26948,0.07876c-0.22917,0 -0.42233,-0.15418 -0.48141,-0.36447c-0.01395,0.01116 -0.02797,0.02238 -0.04207,0.03367l0.05185,0.05185l-0.70711,0.70711c-0.09048,0.09048 -0.21548,0.14645 -0.35355,0.14645c-0.27614,0 -0.5,-0.22386 -0.5,-0.5c0,-0.11406 0.03819,-0.21919 0.10248,-0.30332l0.09078,-0.12153c0.00367,-0.04437 0.01313,-0.08709 0.02763,-0.12741l0.18785,-0.56354l0.03669,0.01223l0.00144,-0.09848c0.01554,-0.01897 0.03107,-0.03796 0.04658,-0.05696l-0.24466,0.20387l0.07771,0.16834l-0.67738,0.3127c-0.06619,0.03234 -0.14059,0.05049 -0.21922,0.05049c-0.2585,0 -0.47118,-0.19617 -0.4973,-0.44775l-0.51907,0.69209c-0.09098,0.12409 -0.23783,0.20466 -0.40349,0.20466c-0.27614,0 -0.5,-0.22386 -0.5,-0.5c0,-0.05938 0.01035,-0.11635 0.02935,-0.16919l0.18785,-0.56354l0.03863,0.01288l-0.00102,-0.09821c0.30617,-0.37754 0.6474,-0.88521 1.02376,-1.37063c-0.18544,0.12136 -0.371,0.24265 -0.55768,0.36254l0.00089,0.00061l-0.31877,0.46827c-0.08946,0.13543 -0.24305,0.22478 -0.41751,0.22478c-0.21787,0 -0.4032,-0.13935 -0.47171,-0.33379c-0.14149,-0.06946 -0.24536,-0.20382 -0.27277,-0.36427l-0.16081,0.12061c-0.08425,0.06462 -0.18966,0.10303 -0.30404,0.10303c-0.27614,0 -0.5,-0.22386 -0.5,-0.5c0,-0.13807 0.05596,-0.26307 0.14645,-0.35355l0.57461,-0.57461l0.0001,0.0001l0.00018,-0.00038c0.07664,-0.07639 0.14977,-0.1483 0.22017,-0.21622c-0.00273,-0.00702 -0.00531,-0.01412 -0.00774,-0.02129c-0.28199,0.15119 -0.58476,0.2629 -0.90079,0.33952l0.05052,0.15156l-0.56354,0.18785c-0.05284,0.019 -0.1098,0.02935 -0.16919,0.02935c-0.25759,0 -0.46968,-0.19478 -0.49702,-0.44509l-0.29865,0.29865c-0.09048,0.09048 -0.21548,0.14645 -0.35355,0.14645c-0.27614,0 -0.5,-0.22386 -0.5,-0.5c0,-0.09283 0.0253,-0.17976 0.06938,-0.25426l0.2462,-0.4344l0.02734,0.0155l0.00976,-0.07175c0.15161,-0.15291 0.31173,-0.3402 0.47992,-0.53812c-0.04228,-0.07338 -0.06647,-0.1585 -0.06647,-0.24926c0,-0.12769 0.04787,-0.2442 0.12663,-0.33257l0.4066,-0.46067c0.019,-0.0237 0.03777,-0.04734 0.05634,-0.07091c-0.08864,0.01963 -0.18153,0.0323 -0.28111,0.03768v0.17725h-0.57461l0,-0.21428c-0.1402,-0.02203 -0.29315,-0.05334 -0.46194,-0.09437l0.16139,-0.29377c-0.0052,-0.02892 -0.00792,-0.0587 -0.00792,-0.08911c0,-0.03627 0.00386,-0.07165 0.0112,-0.10573l-0.05629,-0.05629l0.17438,-0.17438l0.43772,-0.53208l0.01853,0.01525c-0.00716,-0.03369 -0.01093,-0.06863 -0.01093,-0.10446c0,-0.13807 0.05596,-0.26307 0.14645,-0.35355l0.10413,-0.10413l-0.70826,0c0,0 0,0 0,0c-0.27614,0 -0.5,-0.22386 -0.5,-0.5c0,-0.10693 0.03357,-0.20602 0.09073,-0.2873c-0.05717,-0.08129 -0.09073,-0.18038 -0.09073,-0.2873c0,-0.0921 0.0249,-0.17838 0.06834,-0.25249l0.39379,-0.70185l-0.49567,0.24783c-0.06948,0.03658 -0.14862,0.05728 -0.2326,0.05728c-0.27614,0 -0.5,-0.22386 -0.5,-0.5c0,-0.13807 0.05596,-0.26307 0.14645,-0.35355l0.03075,-0.03075c-0.10838,-0.09172 -0.17719,-0.22875 -0.17719,-0.38185c0,-0.12216 0.04381,-0.2341 0.11658,-0.32094c-0.05339,-0.07955 -0.08453,-0.17528 -0.08453,-0.27828c0,-0.16347 0.07845,-0.30862 0.19976,-0.39985l0.76954,-0.59092c0.12663,-0.12601 0.27977,-0.27546 0.45355,-0.44031l-0.09032,0.01154c-0.02328,0.00332 -0.04708,0.00504 -0.07129,0.00504c-0.27614,0 -0.5,-0.22386 -0.5,-0.5c0,-0.15106 0.06699,-0.28647 0.17288,-0.37815l0.75045,-0.65664c1.081,-0.94586 2.04633,-1.96414 3.19784,-2.71773c0.04119,-0.04187 0.08281,-0.08429 0.12484,-0.12733l0.00374,0.0001l-0.00193,-0.00192l0.02719,-0.02728l-0.07987,-0.1065l0.30883,-0.23162l-0.11995,-0.02999c-0.11245,-0.02552 -0.2105,-0.08893 -0.28001,-0.17611c-0.00538,0.00043 -0.01078,0.00085 -0.01618,0.00124l-0.07382,0.36909l-0.9486,-0.18972c-0.23369,-0.04197 -0.41102,-0.24633 -0.41102,-0.49211c0,-0.09846 0.02846,-0.19028 0.07761,-0.26767c-0.17064,-0.01327 -0.31724,-0.11221 -0.39685,-0.25384c-0.15241,-0.08566 -0.25537,-0.24889 -0.25537,-0.43617c0,-0.14154 0.05881,-0.26935 0.15333,-0.36031l0.14484,-0.13978c-0.17561,-0.07757 -0.29817,-0.25327 -0.29817,-0.45759c0,-0.01837 0.00099,-0.0365 0.00292,-0.05436l-0.61107,0.30554c-0.06948,0.03658 -0.14862,0.05728 -0.2326,0.05728c-0.27614,0 -0.5,-0.22386 -0.5,-0.5c0,-0.13743 0.05545,-0.26192 0.14519,-0.3523c0.00003,-0.00003 0.00006,-0.00006 0.00009,-0.00009l0.29473,-0.29683h-0.70616c-0.27614,0 -0.5,-0.22386 -0.5,-0.5c0,-0.13807 0.05596,-0.26307 0.14645,-0.35355l0.47317,-0.47317c-0.06627,-0.14918 -0.07462,-0.36179 -0.03641,-0.60802c-0.02772,-0.02858 -0.05206,-0.06046 -0.07238,-0.09499c-0.01832,0.00203 -0.03694,0.00308 -0.05581,0.00308c-0.27614,0 -0.5,-0.22386 -0.5,-0.5c0,-0.01748 0.0009,-0.03475 0.00265,-0.05177l-0.28321,0.0708c-0.04209,0.01151 -0.0864,0.01765 -0.13215,0.01765c-0.27614,0 -0.5,-0.22386 -0.5,-0.5c0,-0.13807 0.05596,-0.26307 0.14645,-0.35355l0.57461,-0.57461l0.00455,0.00455l0.01095,-0.0194c0.14676,-0.12368 0.38052,-0.36141 0.66195,-0.65121l-0.42394,0.28263c-0.08048,0.05536 -0.17797,0.08777 -0.28304,0.08777c-0.27614,0 -0.5,-0.22386 -0.5,-0.5c0,-0.12135 0.04323,-0.23261 0.11513,-0.3192l0.57024,-0.69777l0.01256,0.01027l0.01935,-0.04572c0.43736,-0.36551 0.91186,-0.77729 1.41455,-1.20407c0.02577,-0.07835 0.07039,-0.14815 0.12849,-0.20403l0.71917,-0.69372l0.00439,0.00455l0.01523,-0.02249c0.90284,-0.70321 1.72888,-1.51281 2.70823,-2.08301c0.13903,-0.11284 0.28466,-0.22236 0.43217,-0.3272c0.11097,-0.11005 0.22496,-0.22304 0.34205,-0.34012l0.70711,-0.70711c0.09048,-0.09048 0.21548,-0.14645 0.35355,-0.14645c0.27614,0 0.5,0.22386 0.5,0.5c0,0.02913 -0.00249,0.05768 -0.00727,0.08545l0.04024,0.08049c0.00424,-0.0012 0.00848,-0.0024 0.01273,-0.0036l-0.02453,-0.12263l0.94756,-0.18951c0.03484,-0.00768 0.07104,-0.01173 0.10818,-0.01173c0.27614,0 0.5,0.22386 0.5,0.5c0,0.01315 -0.00051,0.02618 -0.0015,0.03907c0.09304,-0.0408 0.18614,-0.08161 0.27926,-0.1225l0.02438,-0.00014l-0.00256,-0.00769l0.22984,-0.07661l-0.03831,-0.11492l0.57461,-0.19154l0.05808,0.17423c0.06105,0.01129 0.11822,0.03367 0.16932,0.06498c0.1176,-0.01556 0.23628,-0.02498 0.35604,-0.02774l-0.14974,0.2757c0.02124,0.05549 0.03288,0.11574 0.03288,0.1787c0,0.03627 -0.00386,0.07165 -0.0112,0.10573l0.0127,0.0127c0.14329,-0.02694 0.27895,-0.04468 0.40468,-0.05207c0.34655,-0.18384 0.64012,-0.33122 0.8403,-0.4271l0.32317,-0.48476c0.08903,-0.13785 0.24402,-0.2291 0.42033,-0.2291c0.27614,0 0.5,0.22386 0.5,0.5c0,0.10506 -0.03241,0.20256 -0.08777,0.28304l-0.00878,0.01317c0.05339,-0.01945 0.11104,-0.03006 0.17116,-0.03006c0.27614,0 0.5,0.22386 0.5,0.5c0,0.13807 -0.05596,0.26307 -0.14645,0.35355l-0.57461,0.57461l-0.04111,-0.04111l-0.0661,0.12265c-0.08054,0.01476 -0.16262,0.03523 -0.24612,0.06068c0.08627,0.03586 0.16034,0.09518 0.21423,0.17c0.82472,-0.18993 1.70651,-0.22139 1.96847,0.08822c0.06304,-0.02869 0.13309,-0.04466 0.20686,-0.04466c0.27614,0 0.5,0.22386 0.5,0.5c0,0.01933 -0.0011,0.03841 -0.00323,0.05717l0.17822,-0.05533c-0.08985,0.16851 -0.17082,0.32014 -0.24614,0.45823l0.21643,0.21643l-0.26019,0.26019l0.38974,-0.25983c0.08048,-0.05536 0.17797,-0.08777 0.28304,-0.08777c0.27614,0 0.5,0.22386 0.5,0.5c0,0.04574 -0.00614,0.09005 -0.01765,0.13215l-0.05405,0.21622c0.03689,0.06971 0.05778,0.14919 0.05778,0.23355c0,0.09042 -0.024,0.17523 -0.06597,0.24841c0.15295,-0.06886 0.28256,-0.12196 0.37946,-0.15544l0.56354,-0.18785c0.05284,-0.019 0.1098,-0.02935 0.16919,-0.02935c0.27614,0 0.5,0.22386 0.5,0.5c0,0.05652 -0.00938,0.11086 -0.02667,0.16153c0.13174,0.09004 0.2182,0.24147 0.2182,0.41308c0,0.16055 -0.07567,0.30343 -0.19329,0.39491l-0.30593,0.24235c0.07251,0.08677 0.11615,0.1985 0.11615,0.32042c0,0.16566 -0.08057,0.31251 -0.20466,0.40349l-0.08566,0.06424c0.06205,0.08329 0.09878,0.18656 0.09878,0.29841c0,0.13807 -0.05596,0.26307 -0.14645,0.35355l0,0l-0.15841,0.15841l0.08766,0.02922l-0.11007,0.33021c0.19102,0.07032 0.32726,0.25393 0.32726,0.46936c0,0.17631 -0.09125,0.3313 -0.2291,0.42033l-0.25511,0.17007l-0.17437,0.26156l-0.09022,-0.06014c-0.02468,0.03736 -0.05008,0.07596 -0.07616,0.11563c0.14965,0.0864 0.25035,0.2481 0.25035,0.43331c0,0.00798 -0.00019,0.01591 -0.00056,0.0238l0.36674,-0.24449c0.08048,-0.05536 0.17797,-0.08777 0.28304,-0.08777c0.27614,0 0.5,0.22386 0.5,0.5c0,0.17631 -0.09125,0.3313 -0.2291,0.42033l-0.54228,0.36152c-0.66807,0.6296 -1.62922,1.73624 -2.68179,2.59128c0.00363,0.02431 0.00552,0.0492 0.00552,0.07453c0,0.17631 -0.09125,0.3313 -0.2291,0.42033l-0.37027,0.24685c-0.08371,0.14458 -0.16119,0.28444 -0.23734,0.41844c0.41993,-0.23956 0.81441,-0.45759 1.25936,-0.63548l-0.07093,-0.1797l0.91957,-0.36298c0.0597,-0.02518 0.12531,-0.0391 0.19417,-0.0391c0.27614,0 0.5,0.22386 0.5,0.5c0,0.11961 -0.042,0.22941 -0.11205,0.31546l-0.60927,0.76159l0.00206,-0.00069c0.05284,-0.019 0.1098,-0.02935 0.16919,-0.02935c0.27614,0 0.5,0.22386 0.5,0.5c0,0.09079 -0.0242,0.17593 -0.0665,0.24932l-0.24307,0.44115l-0.0155,-0.00854l-0.01061,0.05081c-0.17483,0.2061 -0.3235,0.43487 -0.46319,0.66876c0.15893,-0.12021 0.32028,-0.23766 0.48719,-0.35127c0.04852,-0.05093 0.09438,-0.09911 0.137,-0.14411l-0.07779,-0.09724l0.77776,-0.62221c0.08605,-0.07005 0.19585,-0.11205 0.31546,-0.11205c0.27614,0 0.5,0.22386 0.5,0.5c0,0.13681 -0.05495,0.26079 -0.14398,0.35107l-0.29707,0.30159c0.07114,0.00836 0.13771,0.03165 0.1965,0.06665zM271.6776,189.09273c0.00176,-0.00194 0.00353,-0.00388 0.00529,-0.00582l-0.01352,0.01014c0.00274,-0.00145 0.00548,-0.00289 0.00823,-0.00432zM260.67475,194.94581l-0.07887,0.00495l0.03783,0.0454c0.01369,-0.01678 0.02737,-0.03356 0.04104,-0.05034zM254.68187,188.1892l0,0.10591l0.1168,-0.1168c-0.03826,0.00447 -0.07714,0.00811 -0.1168,0.01089zM257.29933,177.1236c-0.01207,0.005 -0.02414,0.00999 -0.03623,0.01497l0.00486,0.0085c0.0104,-0.00777 0.02086,-0.01559 0.03137,-0.02346zM254.90441,175.04145c-0.07175,0.01766 -0.14566,0.03245 -0.22254,0.04396v0.1827l0.11241,-0.11321c0.03763,-0.03789 0.07428,-0.07574 0.11013,-0.11344zM254.11407,170.47892c-0.05836,0.02544 -0.11678,0.05034 -0.17526,0.07466l0.04187,0.0628c0.04358,-0.04494 0.08809,-0.09083 0.13339,-0.13746zM260.45184,168.63938l0.06194,0.09291l-0.56892,0.37928c-0.08048,0.05536 -0.17797,0.08777 -0.28304,0.08777c-0.13077,0 -0.24981,-0.0502 -0.33891,-0.13238l-0.20181,0.08072c-0.06025,0.02573 -0.12657,0.03997 -0.19622,0.03997c-0.27614,0 -0.5,-0.22386 -0.5,-0.5c0,-0.00418 0.00005,-0.00835 0.00015,-0.0125c-0.15464,0.09514 -0.30875,0.18867 -0.46107,0.28053c-0.0073,0.13728 -0.09207,0.28726 -0.20342,0.43697c0.17358,0.07841 0.29438,0.25305 0.29438,0.4559c0,0.14008 -0.05761,0.26671 -0.15042,0.35749l-0.41795,0.40943l-0.01011,-0.01032l-0.01321,0.03175c-0.22119,0.16786 -0.41442,0.31706 -0.59197,0.45094c-0.0846,0.20536 -0.18273,0.39081 -0.29327,0.55951c0.00638,-0.00024 0.0128,-0.00036 0.01924,-0.00036c0.27614,0 0.5,0.22386 0.5,0.5c0,0.16566 -0.08057,0.31251 -0.20466,0.40349l-0.71757,0.53818c-0.04523,0.04836 -0.09035,0.09684 -0.13615,0.14457c-0.06536,0.08637 -0.13151,0.17201 -0.19877,0.25706c0.22002,-0.08756 0.44366,-0.16137 0.65845,-0.22789c0.10882,-0.10882 0.31975,-0.31975 0.31975,-0.31975c0.09048,-0.09048 0.21548,-0.14645 0.35355,-0.14645c0.27614,0 0.5,0.22386 0.5,0.5c0,0.11961 -0.042,0.22941 -0.11205,0.31546l-0.4665,0.58312c0.13835,-0.05838 0.27169,-0.11704 0.39534,-0.1784l0.5494,-0.36626c0.08048,-0.05536 0.17797,-0.08777 0.28304,-0.08777c0.27614,0 0.5,0.22386 0.5,0.5c0,0.05652 -0.00938,0.11086 -0.02667,0.16153c0.10389,0.07101 0.17963,0.1802 0.207,0.30736c0.22536,0.04851 0.39427,0.24893 0.39427,0.4888c0,0.03907 -0.00448,0.0771 -0.01296,0.11359c0.27627,-0.08392 0.54306,-0.15747 0.78443,-0.2257l0.06929,0.02331v-0.02813h0.57461c0.27614,0 0.5,0.22386 0.5,0.5c0,0.09846 -0.02846,0.19028 -0.07761,0.26767c0.25325,0.0197 0.45355,0.22807 0.46049,0.4847l0.54559,-0.38971c0.08276,-0.06068 0.18487,-0.09652 0.29535,-0.09652c0.27614,0 0.5,0.22386 0.5,0.5c0,0.13807 -0.05596,0.26307 -0.14645,0.35355l-0.13017,0.13017c0.00117,-0.00039 0.00235,-0.00079 0.00352,-0.00117l-0.00032,-0.00079l0.91795,-0.36718c0.06025,-0.02573 0.12657,-0.03997 0.19622,-0.03997c0.17662,0 0.33185,0.09158 0.4208,0.22984c0.36357,-0.27095 0.70112,-0.44752 0.94761,-0.42061c0.02289,0.0025 0.04523,0.00518 0.06705,0.00806l0.26649,-0.06662l0.07262,-0.21785c-0.10287,-0.09158 -0.16766,-0.22501 -0.16766,-0.37357c0,-0.11304 0.03751,-0.21732 0.10076,-0.30106l0.44898,-0.60875l0.03372,0.02487l0.03843,-0.1035c0.27096,-0.15395 0.52215,-0.32309 0.75983,-0.50225l-0.13792,0.04597c-0.05284,0.019 -0.1098,0.02935 -0.16919,0.02935c-0.27614,0 -0.5,-0.22386 -0.5,-0.5c0,-0.13807 0.05596,-0.26307 0.14645,-0.35355l0.23687,-0.23687c0.0028,-0.09027 0.02954,-0.17451 0.07407,-0.24659l0.29799,-0.50197c-0.11044,-0.09171 -0.18076,-0.23006 -0.18076,-0.38484c0,-0.06186 0.01123,-0.12109 0.03177,-0.17577c-0.03621,0.01282 -0.07272,0.02517 -0.10958,0.03702l-0.08552,0.06414l0.05529,0.16588l-0.56354,0.18785c-0.05284,0.019 -0.1098,0.02935 -0.16919,0.02935c-0.27614,0 -0.5,-0.22386 -0.5,-0.5c0,-0.16566 0.08057,-0.31251 0.20466,-0.40349l0.76149,-0.57112c0.09607,-0.07185 0.19388,-0.1565 0.29335,-0.24926c-0.23691,-0.00309 -0.43408,-0.17095 -0.48215,-0.39423c-0.22536,-0.04851 -0.39427,-0.24893 -0.39427,-0.4888c0,-0.02954 0.00256,-0.05849 0.00748,-0.08663c-0.02785,-0.00622 -0.05483,-0.01476 -0.08072,-0.02542l-0.34337,0.17169c-0.06948,0.03658 -0.14862,0.05728 -0.2326,0.05728c-0.23559,0 -0.43312,-0.16294 -0.48606,-0.38227c-0.26384,0.10737 -0.54381,0.17703 -0.8547,0.1941v0.18817h-0.57461c-0.27614,0 -0.5,-0.22386 -0.5,-0.5c0,-0.13807 0.05596,-0.26307 0.14645,-0.35355l0,0l0.1959,-0.1959c-0.11726,0.03375 -0.23785,0.06163 -0.36379,0.08275l0.03424,0.19286l-0.64783,0.11502c-0.03138,0.00617 -0.06381,0.0094 -0.097,0.0094c-0.27614,0 -0.5,-0.22386 -0.5,-0.5c0,-0.01175 0.00041,-0.0234 0.0012,-0.03495c-0.05709,0.02268 -0.11936,0.03515 -0.18453,0.03515c-0.08347,0 -0.16216,-0.02045 -0.23134,-0.05662c-0.16828,0.09268 -0.33846,0.18062 -0.51094,0.26281zM267.28696,173.57335c-0.01888,0.00597 -0.03787,0.01182 -0.05699,0.01753l0.00794,0.02381c0.0164,-0.01374 0.03275,-0.02753 0.04905,-0.04135zM262.45237,176.85291l-0.02779,0.06029l0.04404,-0.04404zM262.16754,177.0461l-0.15579,0.11128l-0.03914,-0.0548c-0.02034,0.00637 -0.04054,0.01284 -0.06062,0.01943c-0.02298,0.04079 -0.04713,0.08099 -0.07239,0.12063c0.11484,-0.03182 0.22949,-0.06091 0.34316,-0.08761l0.14961,-0.14961c-0.05589,0.01271 -0.11082,0.0263 -0.16484,0.04069zM260.98058,194.57265c-0.03096,0.02534 -0.06228,0.05055 -0.09393,0.07559c-0.04219,0.06229 -0.08448,0.12659 -0.12689,0.19324c0.07327,-0.08988 0.14668,-0.17965 0.22082,-0.26882z" fill="#000000" stroke="none" stroke-width="0.5" />
		</g>
	</g>
</svg>
